<?xml version="1.0" encoding="utf-8"?>
<svg version="1.1" id="Layer_1" xmlns="http://www.w3.org/2000/svg" xmlns:xlink="http://www.w3.org/1999/xlink" x="0px" y="0px"
	 viewBox="0 0 96 96" style="enable-background:new 0 0 96 96;" xml:space="preserve">
<g>
	<path d="M33.4,52.3c0-1.2-0.4-2.2-1.3-3c-0.8-0.8-1.9-1.3-3-1.3s-2.2,0.4-3,1.3s-1.3,1.9-1.3,3
		s0.4,2.2,1.3,3s1.9,1.3,3,1.3s2.2-0.4,3-1.3C33,54.5,33.4,53.5,33.4,52.3z M34.4,43.7h27.3l-2.4-9.6c0-0.1-0.2-0.3-0.4-0.5
		s-0.4-0.3-0.6-0.3H37.7c-0.2,0-0.3,0.1-0.6,0.3s-0.3,0.3-0.4,0.5L34.4,43.7z M71.2,52.3c0-1.2-0.4-2.2-1.3-3s-1.9-1.3-3-1.3
		s-2.2,0.4-3,1.3c-0.8,0.8-1.3,1.9-1.3,3s0.4,2.2,1.3,3c0.8,0.8,1.9,1.3,3,1.3s2.2-0.4,3-1.3S71.2,53.5,71.2,52.3z M75.5,49.7V60
		c0,0.3-0.1,0.5-0.2,0.6s-0.4,0.2-0.6,0.2h-2.6v3.4c0,1.4-0.5,2.6-1.5,3.7s-2.2,1.5-3.7,1.5S64.3,69,63.3,68c-1-1-1.5-2.2-1.5-3.7
		v-3.4H34.3v3.4c0,1.4-0.5,2.6-1.5,3.7c-1,1-2.2,1.5-3.7,1.5S26.4,69,25.4,68s-1.5-2.2-1.5-3.7v-3.4h-2.6c-0.3,0-0.5-0.1-0.6-0.2
		s-0.2-0.4-0.2-0.6V49.7c0-1.7,0.6-3.1,1.8-4.3c1.2-1.2,2.6-1.8,4.3-1.8h0.8l2.8-11.3c0.4-1.7,1.3-3.1,2.8-4.2s3.1-1.7,4.8-1.7h20.6
		c1.8,0,3.4,0.6,4.8,1.7s2.4,2.5,2.8,4.2l2.8,11.3h0.8c1.7,0,3.1,0.6,4.3,1.8C74.9,46.6,75.5,48.1,75.5,49.7z"/>
</g>
</svg>
