<?xml version="1.0" encoding="utf-8"?>
<svg version="1.1" id="Layer_1" xmlns="http://www.w3.org/2000/svg" xmlns:xlink="http://www.w3.org/1999/xlink" x="0px" y="0px"
	 viewBox="0 0 96 96" style="enable-background:new 0 0 96 96;" xml:space="preserve">
<g>
	<path d="M48,18c-12.6,0-25.3,1.6-25.3,12.6v30c0,6.1,5,11.1,11.1,11.1l-4.7,4.7V78h7l6.3-6.3h11.9
		l6.3,6.3h6.3v-1.6l-4.7-4.7c6.1,0,11.1-5,11.1-11.1v-30C73.3,19.6,62,18,48,18z M33.8,65.4c-2.6,0-4.7-2.1-4.7-4.7
		c0-2.6,2.1-4.7,4.7-4.7s4.7,2.1,4.7,4.7C38.5,63.3,36.4,65.4,33.8,65.4z M44.8,43.3H29.1V30.6h15.8V43.3z M51.2,43.3V30.6h15.8
		v12.6H51.2z M62.2,65.4c-2.6,0-4.7-2.1-4.7-4.7c0-2.6,2.1-4.7,4.7-4.7c2.6,0,4.7,2.1,4.7,4.7C66.9,63.3,64.8,65.4,62.2,65.4z"/>
</g>
</svg>
